<?xml version="1.0" standalone="no"?><!DOCTYPE svg PUBLIC "-//W3C//DTD SVG 1.1//EN" "http://www.w3.org/Graphics/SVG/1.1/DTD/svg11.dtd"><svg t="1719552821898" class="icon" viewBox="0 0 1024 1024" version="1.1" xmlns="http://www.w3.org/2000/svg" p-id="6540" xmlns:xlink="http://www.w3.org/1999/xlink" width="200" height="200"><path d="M524.8 938.666667h-4.266667a439.893333 439.893333 0 0 1-313.173333-134.4 446.293333 446.293333 0 0 1-11.093333-597.333334 432.213333 432.213333 0 0 1 170.666666-116.906666 42.666667 42.666667 0 0 1 45.226667 9.386666 42.666667 42.666667 0 0 1 10.24 42.666667 358.4 358.4 0 0 0 82.773333 375.893333 361.386667 361.386667 0 0 0 376.746667 82.773334 42.666667 42.666667 0 0 1 54.186667 55.04A433.493333 433.493333 0 0 1 836.266667 810.666667a438.613333 438.613333 0 0 1-311.466667 128zM318.293333 209.92a338.346667 338.346667 0 0 0-58.453333 52.053333 360.106667 360.106667 0 0 0 8.533333 482.986667A353.706667 353.706667 0 0 0 521.386667 853.333333h3.413333a355.84 355.84 0 0 0 289.28-148.906666A442.453333 442.453333 0 0 1 318.293333 209.92z" fill="#231F20" p-id="6541"></path></svg>